<?xml version="1.0" standalone="no"?>
<!DOCTYPE svg PUBLIC "-//W3C//DTD SVG 20010904//EN"
 "http://www.w3.org/TR/2001/REC-SVG-20010904/DTD/svg10.dtd">
<svg version="1.0" xmlns="http://www.w3.org/2000/svg"
 width="300.000000pt" height="189.000000pt" viewBox="0 0 300.000000 189.000000"
 preserveAspectRatio="xMidYMid meet">
<metadata>
Created by potrace 1.10, written by Peter Selinger 2001-2011
</metadata>
<g transform="translate(0.000000,189.000000) scale(0.100000,-0.100000)"
fill="#008080" stroke="none">
<path d="M1853 1833 c-17 -27 -57 -84 -88 -128 -31 -44 -78 -112 -103 -152
-26 -40 -49 -72 -52 -72 -3 0 -24 23 -48 52 -24 29 -73 85 -111 125 l-67 72
-45 -47 c-24 -27 -56 -62 -70 -80 -23 -28 -29 -30 -45 -19 -18 13 -58 26 -99
33 -33 6 -158 6 -185 0 -86 -19 -186 -77 -243 -142 -115 -131 -140 -351 -57
-492 11 -19 20 -38 20 -44 0 -5 -48 -61 -106 -124 l-106 -115 936 0 936 0 -59
63 -60 62 210 5 210 5 -30 35 c-17 19 -30 38 -31 42 0 4 -21 36 -47 72 -27 35
-68 94 -93 131 -25 36 -72 104 -105 150 -33 47 -79 113 -103 147 -24 35 -82
117 -128 183 -46 66 -109 157 -140 203 -31 45 -57 82 -58 82 -1 0 -16 -21 -33
-47z m232 -280 c105 -152 195 -281 200 -287 6 -6 58 -80 115 -164 58 -84 120
-172 138 -194 17 -22 32 -43 32 -47 0 -4 -81 -8 -179 -8 -151 0 -182 -3 -196
-16 -14 -15 -13 -20 22 -57 25 -28 33 -44 25 -49 -6 -4 -191 -6 -409 -4 -219
2 -506 3 -638 2 -132 -1 -271 -1 -310 0 -38 0 -74 1 -80 1 -212 -5 -285 -4
-285 5 0 5 30 42 66 80 37 39 75 83 85 99 18 29 18 31 -1 62 -38 60 -51 116
-52 209 0 156 57 260 192 351 52 35 154 67 215 67 33 0 126 -17 160 -29 22 -7
48 -14 57 -14 15 0 55 37 116 108 19 21 42 30 42 15 0 -7 29 -40 158 -176 41
-43 47 -46 65 -34 12 7 48 54 82 103 113 166 177 254 183 254 4 0 93 -125 197
-277z"/>
<path d="M309 630 c-60 -38 -299 -282 -299 -305 0 -11 62 -82 148 -167 135
-136 151 -148 184 -148 70 0 115 68 84 127 -8 15 -46 59 -85 98 -39 38 -71 78
-71 89 0 10 39 58 87 107 77 80 86 92 85 124 -2 44 -22 75 -60 91 -26 10 -34
9 -73 -16z m105 -45 c15 -39 2 -60 -83 -149 -107 -111 -108 -119 -19 -204 32
-31 68 -71 78 -88 40 -63 -5 -131 -68 -105 -16 7 -89 73 -162 147 l-133 134
19 22 c45 54 261 260 284 272 20 10 30 10 51 0 15 -7 29 -21 33 -29z"/>
<path d="M2611 611 c-24 -22 -31 -37 -31 -66 0 -34 9 -47 85 -124 47 -48 85
-93 85 -100 0 -7 -33 -48 -74 -90 -81 -82 -95 -114 -76 -162 14 -32 44 -49 87
-49 36 0 303 264 303 300 0 19 -32 57 -132 156 -184 181 -192 186 -247 135z
m219 -138 c71 -69 131 -135 133 -145 5 -18 -96 -129 -211 -231 -62 -55 -102
-62 -128 -23 -14 23 -14 28 0 58 9 18 43 60 76 92 63 62 79 93 62 122 -5 9
-42 50 -82 90 -71 72 -73 75 -67 115 13 95 57 79 217 -78z"/>
<path d="M1015 350 l0 -220 28 0 27 0 0 115 0 114 30 16 c37 19 74 19 94 -1
13 -12 16 -39 16 -130 l0 -114 31 0 31 0 -3 126 c-4 123 -5 126 -32 150 -37
31 -71 39 -107 24 -36 -15 -70 -43 -70 -59 0 -6 -4 -11 -10 -11 -15 0 -12 16
5 30 11 9 15 34 15 96 l0 84 -27 0 -28 0 0 -220z"/>
<path d="M2333 554 c-3 -8 -3 -47 -1 -85 5 -66 4 -69 -12 -54 -10 9 -33 18
-51 21 -75 11 -144 -64 -143 -156 0 -84 20 -125 70 -146 43 -18 106 -4 128 27
14 21 14 21 18 -2 2 -16 11 -25 26 -27 l22 -3 0 220 0 221 -25 0 c-14 0 -28
-7 -32 -16z m32 -161 c-2 -10 -4 -19 -4 -21 -1 -2 -6 0 -11 3 -8 5 -7 11 1 21
15 18 18 18 14 -3z m-45 -18 c7 -9 12 -45 12 -92 0 -67 -3 -80 -22 -95 -31
-25 -82 -23 -106 3 -15 17 -19 36 -19 91 0 61 3 72 24 89 28 23 93 25 111 4z
m-129 -202 c13 -16 12 -17 -3 -4 -17 13 -22 21 -14 21 2 0 10 -8 17 -17z"/>
<path d="M730 533 c-40 -105 -78 -202 -116 -291 -24 -57 -44 -106 -44 -111 0
-4 14 -5 31 -3 24 4 34 12 46 41 13 31 19 49 22 71 1 8 201 8 202 1 2 -21 8
-40 22 -72 12 -29 22 -37 46 -41 36 -5 38 1 13 56 -39 86 -63 145 -106 256
-42 110 -45 115 -75 118 -26 3 -33 -1 -41 -25z m54 -9 c25 -9 19 -26 -6 -19
-13 3 -18 3 -13 -2 6 -4 21 -42 34 -83 14 -41 31 -85 39 -98 8 -12 12 -25 10
-28 -3 -3 -39 -4 -81 -2 l-75 3 34 85 c26 62 33 94 29 118 -6 32 0 37 29 26z
m-96 -248 c-2 -1 -13 -10 -26 -20 l-22 -19 11 32 c9 26 14 29 25 20 8 -7 13
-12 12 -13z m203 -14 c8 -22 8 -22 -15 -5 -13 10 -22 22 -19 26 8 13 26 2 34
-21z"/>
<path d="M1445 428 c-24 -13 -48 -37 -63 -63 -10 -18 -11 -18 -12 -2 0 10 7
25 15 34 19 18 11 33 -18 33 -22 0 -22 -2 -22 -149 l0 -149 28 -5 27 -4 0 117
c0 129 9 150 63 150 49 0 57 -20 57 -146 l0 -114 30 0 30 0 0 113 c0 125 9
147 63 147 45 0 57 -31 57 -152 l0 -108 30 0 31 0 -2 115 c-1 100 -4 120 -23
147 -39 58 -106 61 -156 8 l-28 -30 -6 23 c-5 22 -43 47 -69 47 -7 0 -21 -6
-32 -12z m108 -88 c-3 -11 -7 -20 -9 -20 -2 0 -4 9 -4 20 0 11 4 20 9 20 5 0
7 -9 4 -20z"/>
<path d="M1890 423 c-45 -24 -73 -73 -75 -137 -3 -79 46 -154 105 -158 75 -5
150 18 150 47 0 23 -19 28 -45 11 -39 -26 -102 -21 -131 11 -13 14 -22 28 -20
31 3 2 1 15 -4 28 l-10 24 110 0 110 0 0 25 c0 39 -26 92 -54 110 -38 25 -95
28 -136 8z m99 -38 c16 -8 33 -27 39 -42 l9 -28 -64 3 c-85 5 -107 -2 -120
-35 l-11 -28 -1 33 c-1 20 3 31 9 27 6 -3 14 4 20 17 18 44 38 60 83 67 4 0
21 -6 36 -14z"/>
</g>
</svg>
